<svg viewBox="0 0 20 16" fill="none" xmlns="http://www.w3.org/2000/svg"><path d="M19.49 10.973c-.28 0-.508.205-.508.458v1.752c0 1.01-.914 1.833-2.037 1.833H3.055c-1.123 0-2.037-.822-2.037-1.833V11.43c0-.253-.228-.458-.509-.458S0 11.178 0 11.431v1.752c0 1.516 1.37 2.75 3.055 2.75h13.89c1.685 0 3.055-1.234 3.055-2.75V11.43c0-.253-.228-.458-.51-.458z" fill="#000"/><path d="M16.4 12.78H3.6c-.281 0-.51.205-.51.458s.229.458.51.458h12.8c.28 0 .509-.205.509-.458s-.228-.459-.51-.459zm-1.247-6.45a.55.55 0 0 0-.718-.036L10.509 9.45V.567c0-.253-.227-.459-.509-.459-.28 0-.509.206-.509.459V9.45L5.566 6.294a.55.55 0 0 0-.719.036.427.427 0 0 0 .04.648l4.265 3.43c.242.194.545.291.848.291.303 0 .606-.097.848-.291l4.265-3.43a.427.427 0 0 0 .04-.648z" fill="#000"/></svg>