<svg xmlns="http://www.w3.org/2000/svg" viewBox="0 0 489.7 489.7"><path d="M52.7 134.75c29.1 0 52.7-23.7 52.7-52.7s-23.6-52.8-52.7-52.8S0 52.95 0 81.95s23.7 52.8 52.7 52.8zm0-81c15.6 0 28.2 12.7 28.2 28.2s-12.7 28.2-28.2 28.2-28.2-12.7-28.2-28.2 12.7-28.2 28.2-28.2zm0 243.8c29.1 0 52.7-23.7 52.7-52.7s-23.6-52.7-52.7-52.7S0 215.75 0 244.85s23.7 52.7 52.7 52.7zm0-80.9c15.6 0 28.2 12.7 28.2 28.2s-12.7 28.2-28.2 28.2-28.2-12.6-28.2-28.2 12.7-28.2 28.2-28.2zm0 243.8c29.1 0 52.7-23.7 52.7-52.7 0-29.1-23.7-52.7-52.7-52.7S0 378.75 0 407.75c0 29 23.7 52.7 52.7 52.7zm0-81c15.6 0 28.2 12.7 28.2 28.2 0 15.6-12.7 28.2-28.2 28.2s-28.2-12.7-28.2-28.2 12.7-28.2 28.2-28.2zm123.2-285.2h301.5c6.8 0 12.3-5.5 12.3-12.3s-5.5-12.3-12.3-12.3H175.9c-6.8 0-12.3 5.5-12.3 12.3s5.5 12.3 12.3 12.3zm0 162.9h301.5c6.8 0 12.3-5.5 12.3-12.3s-5.5-12.3-12.3-12.3H175.9c-6.8 0-12.3 5.5-12.3 12.3s5.5 12.3 12.3 12.3zm0 162.8h301.5c6.8 0 12.3-5.5 12.3-12.3s-5.5-12.3-12.3-12.3H175.9c-6.8 0-12.3 5.5-12.3 12.3s5.5 12.3 12.3 12.3z"/></svg>