<svg viewBox="0 0 84 61" fill="none" xmlns="http://www.w3.org/2000/svg"><path d="M84 0H60.591v36.98H84V0zm0 38.786H60.591V61H84V38.786zm-61.837 0H0V61h22.163V38.786zm36.537 0H23.83V61H58.7V38.786zM44.66 13.471c-7.589-.022-15.176-.022-22.742-.044C25.323 9.256 28.727 5.063 32.131.892h12.55v12.58h-.022z" fill="#E7E6E6"/><path d="M31.998 13.471c7.588-.022 15.176-.022 22.741-.044C51.357 9.256 47.952 5.085 44.548.892h-12.55v12.58z" fill="#E7E6E6"/><path d="M19.626 40.882H2.515v18.022h17.111V40.882z" fill="#fff"/><path d="M17 43.67H5.23a.343.343 0 0 1-.334-.334v-.29c0-.179.155-.335.333-.335H17c.178 0 .334.156.334.335v.29a.343.343 0 0 1-.334.334z" fill="#E7E6E6"/><path d="M43.658 43.536v7.093H42.5v-5.174l-2.647 4.371h-.557l-2.625-4.394v5.197h-1.18v-7.093h1.313l2.782 4.796 2.848-4.796h1.224zm8.878 3.97h-5.74c.088.625.355 1.138.823 1.517.467.38 1.045.58 1.735.58.846 0 1.536-.29 2.047-.848l.712.826a2.747 2.747 0 0 1-1.201.847c-.467.2-1.002.29-1.602.29-.757 0-1.402-.156-1.98-.468a3.25 3.25 0 0 1-1.336-1.294 3.775 3.775 0 0 1-.467-1.873c0-.692.156-1.316.467-1.852a3.37 3.37 0 0 1 1.269-1.293 3.588 3.588 0 0 1 1.824-.469c.668 0 1.29.157 1.803.469a3.32 3.32 0 0 1 1.246 1.293c.289.558.445 1.183.445 1.896a1.57 1.57 0 0 0-.045.38zm-5.029-2.408c-.422.379-.667.87-.734 1.472h4.54c-.067-.603-.312-1.093-.735-1.472a2.228 2.228 0 0 0-1.535-.58 2.457 2.457 0 0 0-1.536.58zm12.394-.892c.512.29.912.713 1.202 1.226.289.513.445 1.115.445 1.784 0 .692-.156 1.294-.468 1.83a3.315 3.315 0 0 1-1.29 1.248 4.106 4.106 0 0 1-1.914.446c-1.201 0-2.136-.423-2.781-1.249-.646-.825-.98-1.985-.98-3.479 0-1.45.29-2.587.89-3.412.602-.826 1.514-1.383 2.738-1.65l3.226-.715.178 1.183-2.982.646c-.934.201-1.624.558-2.069 1.049-.445.49-.712 1.204-.779 2.118.312-.446.69-.802 1.18-1.048a3.558 3.558 0 0 1 1.624-.379 3.1 3.1 0 0 1 1.78.402zm-.779 5.152a2.16 2.16 0 0 0 .824-.848c.2-.357.289-.78.289-1.249 0-.714-.223-1.271-.645-1.695-.423-.424-.98-.647-1.692-.647-.69 0-1.268.223-1.69.647-.423.424-.646 1.004-.646 1.695 0 .468.09.87.312 1.25.2.356.467.646.845.847.356.2.757.312 1.202.312.445-.022.868-.112 1.201-.312zm10.281-5.822v7.093h-1.29v-5.977h-3.05l-.088 1.583a18.9 18.9 0 0 1-.245 2.387c-.133.646-.334 1.16-.623 1.539-.29.379-.69.58-1.18.58a3.62 3.62 0 0 1-.778-.112l.089-1.093c.111.022.222.045.311.045a.866.866 0 0 0 .801-.469c.178-.312.29-.691.357-1.115.044-.424.11-1.048.155-1.829l.112-2.632h5.429zm2.514-1.606a.81.81 0 0 1-.245-.58.91.91 0 0 1 .245-.602.873.873 0 0 1 .623-.245c.245 0 .445.09.623.245a.81.81 0 0 1 .245.58.825.825 0 0 1-.245.603.873.873 0 0 1-.623.245c-.267-.022-.467-.09-.623-.245zm-.022 1.606h1.29v7.093h-1.29v-7.093z" fill="#4E4D4D"/><path d="M1.335 24.155c0-1.963.378-3.725 1.157-5.242.779-1.516 1.847-2.698 3.249-3.524 1.38-.825 2.96-1.249 4.74-1.249 1.067 0 1.958.157 2.714.469.757.312 1.469.736 2.203 1.271.2.156.356.245.512.245.356 0 .578-.535.69-1.583h.623c-.067 1.227-.112 3.39-.112 6.49h-.623c-.155-1.316-.378-2.342-.623-3.033-.267-.692-.734-1.294-1.38-1.829-.912-.87-2.024-1.316-3.382-1.316-.912 0-1.735.245-2.447.758s-1.269 1.205-1.67 2.075c-.4.87-.711 1.85-.911 2.921-.2 1.071-.29 2.208-.29 3.435 0 1.227.112 2.387.312 3.457.222 1.07.534 2.03.957 2.9.422.87.979 1.539 1.713 2.03.712.49 1.535.735 2.448.735.6 0 1.201-.111 1.802-.334.6-.223 1.113-.536 1.513-.96.645-.512 1.113-1.137 1.358-1.895.244-.759.445-1.851.6-3.279h.623c0 3.234.045 5.487.112 6.736H16.6c-.045-.558-.134-.96-.223-1.205-.111-.245-.245-.379-.423-.379-.155 0-.333.067-.556.223-.801.558-1.558 1.004-2.292 1.294-.734.29-1.602.446-2.648.446-1.824 0-3.427-.38-4.784-1.137-1.357-.759-2.425-1.874-3.182-3.346-.779-1.427-1.157-3.167-1.157-5.174zM19.804 30.6c0-.936.311-1.695.934-2.297.623-.602 1.58-1.137 2.893-1.628 1.246-.49 2.047-.848 2.425-1.048.668-.38 1.002-.826 1.002-1.339v-2.096c0-1.584-.735-2.387-2.18-2.387-.802 0-1.403.224-1.826.647 1.002.357 1.491 1.049 1.491 2.097 0 .557-.2 1.026-.578 1.383-.379.356-.89.535-1.536.535-.578 0-1.045-.2-1.401-.58-.356-.38-.534-.892-.534-1.494 0-.915.489-1.65 1.49-2.23 1.09-.603 2.426-.915 4.028-.915 1.847 0 3.137.401 3.916 1.204.379.38.623.848.757 1.428.133.557.2 1.338.2 2.342v7.27c0 .447.045.737.134.915.089.178.222.268.445.268.267 0 .578-.156.979-.469l.267.469c-.801.646-1.825.98-3.049.98-.912 0-1.557-.2-1.958-.601-.4-.402-.6-.915-.6-1.561-.424.713-.98 1.27-1.67 1.628a4.728 4.728 0 0 1-2.203.535c-1.023 0-1.869-.268-2.492-.803s-.934-1.294-.934-2.253zm3.85-.736c0 .714.133 1.227.422 1.562.29.334.668.513 1.157.513.69 0 1.29-.357 1.802-1.093v-5.487c-.11.2-.289.38-.534.58-.244.2-.623.446-1.112.736-.579.424-1.001.87-1.29 1.36-.312.491-.446 1.093-.446 1.83zm9.856 3.591v-.535c.646 0 1.069-.134 1.336-.402.245-.267.378-.78.378-1.516v-8.877c0-.736-.133-1.249-.378-1.517-.245-.267-.69-.401-1.335-.401v-.535c2.025.067 3.204.111 3.515.111.468 0 1.113-.022 1.936-.067a38.358 38.358 0 0 1 1.58-.067h4.117c-.111 1.406-.178 2.655-.178 3.725 0 .78.022 1.405.089 1.829h-.623c-.312-1.784-.757-3.056-1.269-3.859-.534-.78-1.179-1.182-1.958-1.182h-.467c-.423 0-.712.112-.89.357-.178.246-.267.647-.267 1.25v8.92c0 .826.2 1.406.623 1.718.423.312 1.046.468 1.891.468v.536c-2.47-.067-4.005-.09-4.584-.09-.556.045-1.713.067-3.515.134zM46.083 30.6c0-.936.312-1.695.935-2.297.623-.602 1.58-1.137 2.892-1.628 1.246-.49 2.047-.848 2.426-1.048.667-.38 1.001-.826 1.001-1.339v-2.096c0-1.584-.734-2.387-2.18-2.387-.802 0-1.402.224-1.825.647 1.001.357 1.49 1.049 1.49 2.097 0 .557-.2 1.026-.578 1.383-.378.356-.89.535-1.535.535-.579 0-1.046-.2-1.402-.58-.356-.38-.534-.892-.534-1.494 0-.915.49-1.65 1.49-2.23 1.091-.603 2.426-.915 4.028-.915 1.847 0 3.138.401 3.916 1.204.379.38.624.848.757 1.428.134.557.2 1.338.2 2.342v7.27c0 .447.045.737.134.915.089.178.222.268.445.268.267 0 .578-.156.979-.469l.267.469c-.801.646-1.825.98-3.049.98-.912 0-1.557-.2-1.958-.601-.4-.402-.6-.915-.6-1.561-.423.713-.98 1.27-1.67 1.628a4.728 4.728 0 0 1-2.202.535c-1.024 0-1.87-.268-2.492-.803-.623-.535-.935-1.294-.935-2.253zm3.85-.736c0 .714.133 1.227.422 1.562.29.334.668.513 1.157.513.69 0 1.291-.357 1.803-1.093v-5.487c-.111.2-.29.38-.534.58-.245.2-.623.446-1.113.736-.578.424-1.001.87-1.29 1.36-.29.491-.445 1.093-.445 1.83zm8.945-9.657v-.535c2.025.067 3.204.111 3.538.111.356 0 1.49-.044 3.449-.111v.535c-.534 0-.912.134-1.113.401-.2.268-.311.781-.311 1.517v2.476c0 .446 0 .78.022 1.048s.067.513.134.78c.066.268.178.469.311.603.134.134.334.245.579.334.244.09.556.134.912.134.823 0 1.469-.156 1.98-.49v-4.863c0-.736-.11-1.249-.311-1.516-.223-.268-.579-.402-1.135-.402v-.535c1.87.067 2.982.112 3.338.112.289 0 1.513-.045 3.671-.112v.535c-.645 0-1.068.134-1.335.402-.245.267-.378.78-.378 1.516v8.877c0 .736.133 1.227.378 1.517.245.267.69.401 1.335.401v.536a109.65 109.65 0 0 0-3.649-.09c-.467 0-1.958.023-4.428.09v-.536c.845 0 1.469-.156 1.891-.468.423-.312.623-.892.623-1.717v-3.212c-.422.223-1.023.424-1.758.58-.734.156-1.49.245-2.247.245-1.38 0-2.359-.312-2.982-.937-.333-.312-.534-.713-.645-1.182-.111-.468-.156-1.115-.156-1.918v-2.23c0-.736-.133-1.25-.378-1.517-.267-.245-.712-.379-1.335-.379z" fill="#343434"/></svg>