<svg viewBox="0 0 13 13" fill="none" xmlns="http://www.w3.org/2000/svg"><path d="M12.382 7.35a6.18 6.18 0 0 0 .056-.818c0-3.327-2.673-6.025-5.97-6.025-.327 0-.648.027-.96.08A3.512 3.512 0 0 0 3.561 0C1.594 0 0 1.618 0 3.614c0 .727.21 1.402.574 1.968a5.96 5.96 0 0 0-.074.95c0 3.327 2.671 6.025 5.969 6.025a6.01 6.01 0 0 0 1.086-.102A3.522 3.522 0 0 0 9.438 13C11.406 13 13 11.382 13 9.386c0-.755-.227-1.457-.618-2.037zm-5.355 3.622c-1.897.1-2.785-.326-3.598-1.1-.908-.864-.543-1.85.197-1.9.739-.051 1.183.85 1.578 1.1.394.25 1.894.818 2.686-.1.862-1-.574-1.519-1.627-1.675C4.76 7.07 2.863 6.246 3.01 4.62c.147-1.625 1.36-2.458 2.637-2.575 1.627-.15 2.686.25 3.523.975.97.838.445 1.775-.172 1.85-.615.075-1.305-1.378-2.66-1.4-1.398-.022-2.342 1.475-.618 1.9 1.726.426 3.574.6 4.24 2.201.666 1.6-1.035 3.3-2.933 3.401z" fill="#fff"/></svg>