<svg viewBox="0 0 20 16" fill="none" xmlns="http://www.w3.org/2000/svg">
<path d="M19.4909 5.06582e-07C19.2097 5.06582e-07 18.9817 0.205281 18.9817 0.45839V2.20994C18.9817 3.22093 18.0681 4.04346 16.9452 4.04346H3.0548C1.93188 4.04346 1.01828 3.22093 1.01828 2.20994V0.45839C1.01828 0.205281 0.790352 5.06582e-07 0.509141 5.06582e-07C0.22793 5.06582e-07 0 0.205245 0 0.45839V2.20994C0 3.72645 1.37039 4.96024 3.0548 4.96024H16.9452C18.6296 4.96024 20 3.72645 20 2.20994V0.45839C20 0.205245 19.7721 5.06582e-07 19.4909 5.06582e-07Z" transform="translate(0 10.973)" fill="black"/>
<path d="M13.3086 -4.29306e-07H0.509141C0.228008 -4.29306e-07 1.26362e-07 0.205281 1.26362e-07 0.45839C1.26362e-07 0.7115 0.22793 0.91678 0.509141 0.91678H13.3086C13.5898 0.91678 13.8177 0.71157 13.8177 0.45839C13.8177 0.205281 13.5898 -4.29306e-07 13.3086 -4.29306e-07Z" transform="translate(3.09082 12.7793)" fill="black"/>
<path d="M10.4357 6.22192C10.2484 6.03317 9.92652 6.01674 9.71676 6.18541L5.79168 9.34234V0.45839C5.79168 0.20528 5.56375 -2.14653e-09 5.28254 -2.14653e-09C5.00141 -2.14653e-09 4.7734 0.20521 4.7734 0.45839V9.34234L0.84832 6.18545C0.638672 6.01678 0.316797 6.03324 0.129414 6.22195C-0.0578519 6.41078 -0.0397661 6.70057 0.169921 6.8692L4.43453 10.2991C4.67621 10.4936 4.9793 10.5907 5.2825 10.5907C5.58559 10.5907 5.88871 10.4936 6.13047 10.2992L10.3951 6.8692C10.6048 6.70046 10.623 6.41067 10.4357 6.22192Z" transform="translate(4.71777 0.108398)" fill="black"/>
</svg>
