<svg viewBox="0 0 14 10" fill="none" xmlns="http://www.w3.org/2000/svg">
<path d="M6.684 1.516L4.952 2.05994e-07L1.45435e-08 4.245C0.18 4.412 0.423 4.516 0.691 4.516H12.677C12.944 4.516 13.186 4.412 13.365 4.245L8.416 2.05994e-07L6.684 1.516Z" transform="translate(0.316406 5.48389)" fill="white"/>
<path d="M13.366 0.271C13.186 0.103 12.944 0 12.675 0H0.689C0.422 0 0.18 0.104 -1.12057e-08 0.273L6.682 6L13.366 0.271Z" transform="translate(0.318359)" fill="white"/>
<path d="M0 2.09808e-08V8.308L4.833 4.201L0 2.09808e-08Z" transform="translate(0 0.87793)" fill="white"/>
<path d="M-1.83105e-07 4.204L4.833 8.311V0L-1.83105e-07 4.204Z" transform="translate(9.16699 0.875)" fill="white"/>
</svg>
