<svg viewBox="0 0 84 61" fill="none" xmlns="http://www.w3.org/2000/svg">
<path d="M23.4087 0H0V36.9792H23.4087V0Z" transform="translate(60.5913)" fill="#E7E6E6"/>
<path d="M23.4087 0H0V22.2143H23.4087V0Z" transform="translate(60.5913 38.7857)" fill="#E7E6E6"/>
<path d="M22.1627 0H0V22.2143H22.1627V0Z" transform="translate(0 38.7857)" fill="#E7E6E6"/>
<path d="M34.8683 0H0V22.2143H34.8683V0Z" transform="translate(23.8315 38.7857)" fill="#E7E6E6"/>
<path d="M22.7412 12.5792C15.1534 12.5569 7.56556 12.5569 -6.79067e-07 12.5346C3.4045 8.3638 6.80901 4.17075 10.2135 0H22.7634V12.5792H22.7412Z" transform="translate(21.918 0.892151)" fill="#E7E6E6"/>
<path d="M0 12.5792C7.58781 12.5569 15.1756 12.5569 22.7412 12.5346C19.3589 8.3638 15.9544 4.19305 12.5499 0H0V12.5792Z" transform="translate(31.998 0.892151)" fill="#E7E6E6"/>
<path d="M17.1115 0H0V18.0212H17.1115V0Z" transform="translate(2.51465 40.8823)" fill="white"/>
<path d="M12.1049 0.95905H0.333774C0.155761 0.95905 -6.79067e-07 0.802926 -6.79067e-07 0.624498V0.334552C-6.79067e-07 0.156124 0.155761 0 0.333774 0H12.1049C12.2829 0 12.4387 0.156124 12.4387 0.334552V0.624498C12.4387 0.802926 12.2829 0.95905 12.1049 0.95905Z" transform="translate(4.89551 42.7112)" fill="#E7E6E6"/>
<path d="M8.16636 -6.80648e-07V7.0925H7.00927V1.9181L4.36132 6.28958H3.80503L1.17934 1.89579V7.0925H2.71627e-06V-6.80648e-07H1.31285L4.09431 4.79525L6.94252 -6.80648e-07H8.16636Z" transform="translate(35.4912 43.5364)" fill="#4E4D4D"/>
<path d="M7.00927 4.03693H1.26834C1.35735 4.66143 1.62437 5.1744 2.09166 5.55356C2.55894 5.93272 3.13748 6.13345 3.82728 6.13345C4.67285 6.13345 5.36265 5.84351 5.87444 5.28592L6.58649 6.11115C6.27497 6.49031 5.87444 6.78026 5.3849 6.95869C4.91762 7.15942 4.38357 7.24863 3.78278 7.24863C3.02622 7.24863 2.38093 7.0925 1.80238 6.78025C1.22384 6.468 0.778807 6.04424 0.467283 5.48665C0.15576 4.92907 -2.71627e-06 4.30457 -2.71627e-06 3.61316C-2.71627e-06 2.92176 0.15576 2.29726 0.467283 1.76198C0.778807 1.20439 1.20159 0.780622 1.73563 0.468373C2.26967 0.156124 2.89271 -1.3613e-06 3.56026 -1.3613e-06C4.22781 -1.3613e-06 4.85086 0.156124 5.36265 0.468373C5.89669 0.780622 6.29722 1.20439 6.60874 1.76198C6.89801 2.31956 7.05377 2.94406 7.05377 3.65777C7.03152 3.74698 7.00927 3.8808 7.00927 4.03693ZM1.9804 1.62815C1.55762 2.00731 1.31285 2.49799 1.24609 3.10018H5.78543C5.71867 2.49799 5.47391 2.00731 5.05113 1.62815C4.62834 1.24899 4.11656 1.04826 3.51576 1.04826C2.91497 1.07057 2.40318 1.2713 1.9804 1.62815Z" transform="translate(45.5269 43.4695)" fill="#4E4D4D"/>
<path d="M5.78543 3.97002C6.29722 4.25996 6.69775 4.68373 6.98702 5.19671C7.27629 5.70969 7.43205 6.31189 7.43205 6.98099C7.43205 7.6724 7.27629 8.27459 6.96477 8.80987C6.65325 9.34515 6.23046 9.74662 5.67417 10.0589C5.11788 10.3488 4.47258 10.5049 3.76053 10.5049C2.55894 10.5049 1.62437 10.0812 0.97907 9.25594C0.333772 8.43071 -1.35813e-06 7.27093 -1.35813e-06 5.7766C-1.35813e-06 4.32687 0.28927 3.1894 0.890065 2.36417C1.49086 1.53894 2.40318 0.981354 3.62702 0.713712L6.85351 -1.3613e-06L7.03152 1.18208L4.0498 1.82889C3.11523 2.02962 2.42543 2.38647 1.98039 2.87715C1.53536 3.36783 1.26834 4.08154 1.20159 4.99598C1.51311 4.54991 1.89139 4.19305 2.38093 3.94772C2.87046 3.70238 3.4045 3.56855 4.0053 3.56855C4.6951 3.52395 5.27364 3.68007 5.78543 3.97002ZM5.00662 9.12212C5.36265 8.92139 5.62967 8.63144 5.82994 8.27459C6.0302 7.91773 6.1192 7.49397 6.1192 7.02559C6.1192 6.31188 5.89669 5.7543 5.47391 5.33053C5.05113 4.90676 4.49483 4.68373 3.78278 4.68373C3.09298 4.68373 2.51443 4.90676 2.09165 5.33053C1.66887 5.7543 1.44636 6.33418 1.44636 7.02559C1.44636 7.49397 1.53536 7.89543 1.75788 8.27459C1.95814 8.63144 2.22517 8.92139 2.60345 9.12212C2.95947 9.32285 3.36 9.43437 3.80503 9.43437C4.25007 9.41207 4.67285 9.32285 5.00662 9.12212Z" transform="translate(54.1157 40.2355)" fill="#4E4D4D"/>
<path d="M7.25404 -6.80648e-07V7.0925H5.96344V1.11517H2.91497L2.82596 2.69872C2.78146 3.65777 2.69245 4.46069 2.58119 5.08519C2.44768 5.73199 2.24741 6.24497 1.95814 6.62413C1.66887 7.00329 1.26834 7.20402 0.778808 7.20402C0.556291 7.20402 0.289272 7.15941 0 7.0925L0.0890053 5.99964C0.200264 6.02194 0.31152 6.04424 0.400527 6.04424C0.756554 6.04424 1.02357 5.88812 1.20159 5.57587C1.3796 5.26362 1.49086 4.88446 1.55762 4.4607C1.60212 4.03693 1.66888 3.41243 1.71338 2.63181L1.82464 -6.80648e-07H7.25404Z" transform="translate(62.1489 43.5364)" fill="#4E4D4D"/>
<path d="M0.244767 1.42742C0.0890053 1.2713 -2.71627e-06 1.07057 -2.71627e-06 0.847531C-2.71627e-06 0.624496 0.0890053 0.423765 0.244767 0.245338C0.400528 0.0892132 0.623049 1.3613e-06 0.867817 1.3613e-06C1.11259 1.3613e-06 1.31285 0.0892132 1.49086 0.245338C1.64662 0.401462 1.73563 0.602194 1.73563 0.825229C1.73563 1.07057 1.64662 1.2713 1.49086 1.42742C1.3351 1.58355 1.11259 1.67276 0.867817 1.67276C0.600797 1.65046 0.400528 1.58355 0.244767 1.42742ZM0.222514 3.03327H1.51311V10.1258H0.222514V3.03327Z" transform="translate(71.6724 40.5031)" fill="#4E4D4D"/>
<path d="M-6.79067e-07 10.0143C-6.79067e-07 8.05155 0.378279 6.28958 1.15709 4.77294C1.93589 3.25631 3.00397 2.07422 4.40583 1.24899C5.78543 0.423766 7.3653 3.40324e-07 9.14543 3.40324e-07C10.2135 3.40324e-07 11.1036 0.156124 11.8601 0.468373C12.6167 0.780622 13.3287 1.20439 14.063 1.73967C14.2633 1.89579 14.4191 1.98501 14.5748 1.98501C14.9309 1.98501 15.1534 1.44973 15.2646 0.401462H15.8877C15.8209 1.62815 15.7764 3.79159 15.7764 6.89177H15.1534C14.9976 5.57587 14.7751 4.54991 14.5303 3.8585C14.2633 3.16709 13.796 2.5649 13.1507 2.02962C12.2384 1.15978 11.1258 0.713711 9.76848 0.713711C8.85616 0.713711 8.03285 0.959049 7.3208 1.47203C6.60874 1.98501 6.05245 2.67642 5.65192 3.54625C5.25139 4.41609 4.93987 5.39744 4.7396 6.46801C4.53934 7.53857 4.45033 8.67605 4.45033 9.90274C4.45033 11.1294 4.56159 12.2892 4.76186 13.3598C4.98437 14.4303 5.29589 15.3894 5.71867 16.2592C6.14146 17.1291 6.69775 17.7982 7.43205 18.2888C8.14411 18.7795 8.96742 19.0249 9.87974 19.0249C10.4805 19.0249 11.0813 18.9133 11.6821 18.6903C12.2829 18.4673 12.7947 18.155 13.1952 17.7313C13.8405 17.2183 14.3078 16.5938 14.5526 15.8355C14.7974 15.0771 14.9976 13.9843 15.1534 12.5569H15.7764C15.7764 15.7909 15.8209 18.0435 15.8877 19.2925H15.2646C15.2201 18.7349 15.1311 18.3335 15.0421 18.0881C14.9309 17.8428 14.7974 17.709 14.6193 17.709C14.4636 17.709 14.2856 17.7759 14.063 17.932C13.262 18.4896 12.5054 18.9357 11.7711 19.2256C11.0368 19.5155 10.169 19.6717 9.12318 19.6717C7.29854 19.6717 5.69642 19.2925 4.33907 18.5342C2.98172 17.7759 1.91364 16.6607 1.15709 15.1887C0.378279 13.7612 -6.79067e-07 12.0216 -6.79067e-07 10.0143Z" transform="translate(1.33496 14.1404)" fill="#343434"/>
<path d="M-6.79067e-07 11.3525C-6.79067e-07 10.4157 0.311522 9.6574 0.934568 9.05521C1.55761 8.45302 2.51444 7.91773 3.82728 7.42706C5.07338 6.93638 5.87444 6.57952 6.25272 6.37879C6.92027 5.99963 7.25404 5.55356 7.25404 5.04058V2.94406C7.25404 1.36051 6.51973 0.557588 5.07338 0.557588C4.27232 0.557588 3.67152 0.780621 3.24874 1.20439C4.25007 1.56124 4.7396 2.25265 4.7396 3.30092C4.7396 3.8585 4.53934 4.32687 4.16106 4.68373C3.78278 5.04059 3.27099 5.21901 2.6257 5.21901C2.04715 5.21901 1.57987 5.01828 1.22384 4.63912C0.867814 4.25997 0.689802 3.74698 0.689802 3.14479C0.689802 2.23035 1.17934 1.49433 2.18066 0.914441C3.27099 0.312247 4.60609 6.80648e-07 6.20821 6.80648e-07C8.0551 6.80648e-07 9.34569 0.401462 10.1245 1.20439C10.5028 1.58355 10.7476 2.05192 10.8811 2.63181C11.0146 3.1894 11.0813 3.97002 11.0813 4.97368V12.2446C11.0813 12.6907 11.1258 12.9806 11.2148 13.1591C11.3038 13.3375 11.4374 13.4267 11.6599 13.4267C11.9269 13.4267 12.2384 13.2706 12.6389 12.9583L12.906 13.4267C12.1049 14.0735 11.0813 14.408 9.85748 14.408C8.94517 14.408 8.29987 14.2073 7.89934 13.8058C7.49881 13.4044 7.29854 12.8914 7.29854 12.2446C6.87576 12.9583 6.31947 13.5159 5.62967 13.8728C4.93987 14.2296 4.20556 14.408 3.42676 14.408C2.40318 14.408 1.55761 14.1404 0.934568 13.6051C0.311522 13.0698 -6.79067e-07 12.3115 -6.79067e-07 11.3525ZM3.84954 10.6165C3.84954 11.3302 3.98304 11.8431 4.27232 12.1777C4.56159 12.5122 4.93987 12.6907 5.42941 12.6907C6.11921 12.6907 6.72 12.3338 7.23179 11.5978V6.11115C7.12053 6.31188 6.94252 6.49031 6.69775 6.69104C6.45298 6.89177 6.0747 7.13711 5.58517 7.42706C5.00662 7.85082 4.58384 8.29689 4.29457 8.78757C3.98305 9.27824 3.84954 9.88044 3.84954 10.6165Z" transform="translate(19.8037 19.2479)" fill="#343434"/>
<path d="M-2.71627e-06 13.8059V13.2706C0.645295 13.2706 1.06808 13.1367 1.3351 12.8691C1.57986 12.6015 1.71338 12.0885 1.71338 11.3525V2.47568C1.71338 1.73967 1.57986 1.22669 1.3351 0.959048C1.09033 0.691406 0.645295 0.557588 -2.71627e-06 0.557588V0.0223028C2.0249 0.0892132 3.20424 0.13382 3.51576 0.13382C3.98305 0.13382 4.62834 0.111516 5.45165 0.0669091C6.27496 0.0223021 6.78675 1.3613e-06 7.03152 1.3613e-06H11.1481C11.0368 1.40512 10.9701 2.65411 10.9701 3.72468C10.9701 4.5053 10.9923 5.1298 11.0591 5.55356H10.436C10.1245 3.76929 9.67947 2.49799 9.16768 1.69506C8.63364 0.914442 7.98835 0.512979 7.20954 0.512979H6.74225C6.31947 0.512979 6.0302 0.624497 5.85219 0.869835C5.67417 1.11517 5.58516 1.51664 5.58516 2.11883V11.0402C5.58516 11.8654 5.78543 12.4453 6.20821 12.7576C6.631 13.0698 7.25404 13.226 8.09961 13.226V13.7612C5.62967 13.6943 4.09431 13.672 3.51576 13.672C2.95947 13.7166 1.80238 13.7389 -2.71627e-06 13.8059Z" transform="translate(33.5107 19.6494)" fill="#343434"/>
<path d="M-2.71627e-06 11.3525C-2.71627e-06 10.4157 0.311523 9.6574 0.934569 9.05521C1.55762 8.45302 2.51444 7.91773 3.82728 7.42706C5.07338 6.93638 5.87444 6.57952 6.25271 6.37879C6.92026 5.99963 7.25404 5.55356 7.25404 5.04058V2.94406C7.25404 1.36051 6.51974 0.557588 5.07338 0.557588C4.27232 0.557588 3.67152 0.780621 3.24874 1.20439C4.25006 1.56124 4.7396 2.25265 4.7396 3.30092C4.7396 3.8585 4.53934 4.32687 4.16106 4.68373C3.78278 5.04059 3.27099 5.21901 2.6257 5.21901C2.04715 5.21901 1.57986 5.01828 1.22384 4.63912C0.867812 4.25997 0.6898 3.74698 0.6898 3.14479C0.6898 2.23035 1.17934 1.49433 2.18066 0.914441C3.27099 0.312247 4.6061 6.80648e-07 6.20821 6.80648e-07C8.0551 6.80648e-07 9.34569 0.401462 10.1245 1.20439C10.5028 1.58355 10.7476 2.05192 10.8811 2.63181C11.0146 3.1894 11.0813 3.97002 11.0813 4.97368V12.2446C11.0813 12.6907 11.1258 12.9806 11.2148 13.1591C11.3038 13.3375 11.4374 13.4267 11.6599 13.4267C11.9269 13.4267 12.2384 13.2706 12.6389 12.9583L12.906 13.4267C12.1049 14.0735 11.0813 14.408 9.85748 14.408C8.94517 14.408 8.29986 14.2073 7.89934 13.8058C7.49881 13.4044 7.29854 12.8914 7.29854 12.2446C6.87576 12.9583 6.31947 13.5159 5.62967 13.8728C4.93987 14.2296 4.20557 14.408 3.42676 14.408C2.40318 14.408 1.55762 14.1404 0.934569 13.6051C0.311523 13.0698 -2.71627e-06 12.3115 -2.71627e-06 11.3525ZM3.84954 10.6165C3.84954 11.3302 3.98305 11.8431 4.27232 12.1777C4.56159 12.5122 4.93987 12.6907 5.42941 12.6907C6.11921 12.6907 6.72 12.3338 7.23179 11.5978V6.11115C7.12053 6.31188 6.94252 6.49031 6.69775 6.69104C6.45298 6.89177 6.0747 7.13711 5.58516 7.42706C5.00662 7.85082 4.58384 8.29689 4.29457 8.78757C4.0053 9.27824 3.84954 9.88044 3.84954 10.6165Z" transform="translate(46.083 19.2479)" fill="#343434"/>
<path d="M-2.71627e-06 0.535285V-6.80648e-07C2.0249 0.0669097 3.20424 0.111517 3.53802 0.111517C3.89404 0.111517 5.02888 0.0669097 6.98702 -6.80648e-07V0.535285C6.45298 0.535285 6.0747 0.669103 5.87444 0.936745C5.67418 1.20439 5.56291 1.71737 5.56291 2.45338V4.92907C5.56291 5.37514 5.56291 5.70969 5.58516 5.97733C5.60742 6.24497 5.65192 6.49031 5.71868 6.75795C5.78543 7.02559 5.89669 7.22632 6.0302 7.36015C6.16371 7.49397 6.36397 7.60548 6.60874 7.6947C6.85351 7.78391 7.16503 7.82852 7.52106 7.82852C8.34437 7.82852 8.98967 7.6724 9.50146 7.33784V2.47569C9.50146 1.73967 9.3902 1.22669 9.18994 0.959049C8.96742 0.691408 8.61139 0.557586 8.0551 0.557586V0.0223042C9.92424 0.0892146 11.0368 0.133822 11.3928 0.133822C11.6821 0.133822 12.906 0.0892146 15.0644 0.0223042V0.557586C14.4191 0.557586 13.9963 0.691408 13.7293 0.959049C13.4845 1.22669 13.351 1.73967 13.351 2.47569V11.3525C13.351 12.0885 13.4845 12.5792 13.7293 12.8691C13.974 13.1367 14.4191 13.2706 15.0644 13.2706V13.8059C13.262 13.7389 12.0381 13.7166 11.4151 13.7166C10.9478 13.7166 9.45696 13.7389 6.98702 13.8059V13.2706C7.83259 13.2706 8.45563 13.1144 8.87841 12.8022C9.30119 12.4899 9.50146 11.9101 9.50146 11.0848V7.87313C9.07868 8.09616 8.47788 8.29689 7.74358 8.45302C7.00927 8.60914 6.25272 8.69835 5.49616 8.69835C4.11656 8.69835 3.13748 8.38611 2.51444 7.76161C2.18066 7.44936 1.9804 7.0479 1.86914 6.57952C1.75788 6.11115 1.71338 5.46435 1.71338 4.66143V2.43108C1.71338 1.69507 1.57986 1.18208 1.3351 0.914443C1.06808 0.669105 0.623044 0.535285 -2.71627e-06 0.535285Z" transform="translate(58.8779 19.6717)" fill="#343434"/>
</svg>
