<svg viewBox="0 0 13 13" fill="none" xmlns="http://www.w3.org/2000/svg">
<path d="M12.3818 7.34934C12.4175 7.08143 12.4381 6.80906 12.4381 6.5318C12.4381 3.20476 9.76521 0.507147 6.46869 0.507147C6.14105 0.507147 5.81984 0.534453 5.50725 0.586489C4.94683 0.21595 4.27982 -1.22836e-09 3.56203 -1.22836e-09C1.59367 -1.22836e-09 0 1.61796 0 3.61435C0 4.34074 0.210717 5.01557 0.573574 5.58217C0.524697 5.89173 0.499713 6.20874 0.499713 6.53167C0.499713 9.85931 3.17124 12.5566 6.46867 12.5566C6.84082 12.5566 7.20314 12.5198 7.55529 12.4552C8.10243 12.7996 8.74697 13 9.43787 13C11.4057 13.0001 13 11.3817 13 9.38552C12.9999 8.63092 12.7725 7.92933 12.3818 7.34934ZM7.0266 10.972C5.12979 11.0723 4.24216 10.6464 3.42903 9.87221C2.52093 9.00756 2.88572 8.02122 3.62555 7.97107C4.36498 7.92104 4.80893 8.82155 5.20358 9.07197C5.59774 9.32153 7.09757 9.89012 7.88973 8.97129C8.75243 7.97107 7.31605 7.45349 6.26321 7.29681C4.76001 7.07099 2.86213 6.24599 3.00978 4.62012C3.15745 2.9953 4.37026 2.16221 5.6466 2.04469C7.27355 1.89484 8.33272 2.29474 9.17046 3.01998C10.1391 3.85794 9.615 4.79472 8.99783 4.8701C8.38305 4.94503 7.69265 3.49181 6.33709 3.46996C4.93992 3.44771 3.99565 4.94503 5.72046 5.37067C7.44618 5.79585 9.29419 5.97053 9.9597 7.57106C10.6257 9.17174 8.92501 10.8716 7.0266 10.972Z" fill="white"/>
</svg>
